<?xml version="1.0" encoding="UTF-8" standalone="no"?>
<!DOCTYPE svg PUBLIC "-//W3C//DTD SVG 1.1//EN" "http://www.w3.org/Graphics/SVG/1.1/DTD/svg11.dtd">
<svg xmlns="http://www.w3.org/2000/svg" version="1.1" viewBox="0 0 1576 716">
<g stroke-width="2.00" fill="none" stroke-linecap="butt">
<path stroke="#8fa5e5" vector-effect="non-scaling-stroke" d="
  M 558.10 197.65
  C 559.10 193.87 557.79 191.13 554.29 189.16
  C 548.15 185.70 541.44 182.38 535.72 179.08
  Q 373.83 85.82 344.94 69.06
  Q 335.14 63.38 324.57 64.33
  C 318.59 64.87 313.59 67.46 308.29 70.53
  Q 260.42 98.24 114.05 182.54
  C 99.18 191.11 94.00 202.04 94.00 219.00
  Q 94.00 330.09 94.01 441.19
  C 94.01 445.95 94.37 452.98 96.25 457.81
  Q 100.76 469.43 110.79 475.23
  Q 206.16 530.34 301.58 585.36
  C 305.88 587.84 314.24 593.25 318.73 594.49
  Q 332.11 598.19 342.94 591.95
  Q 443.48 534.01 543.95 475.97
  C 554.99 469.59 561.79 458.16 561.83 445.05
  Q 562.17 329.74 561.89 214.44
  Q 561.87 205.90 558.17 198.34
  A 1.03 1.01 -51.3 0 1 558.10 197.65"
/>
<path stroke="#8fa5e5" vector-effect="non-scaling-stroke" d="
  M 704.25 220.00
  L 750.24 220.00
  A 1.00 1.00 0.0 0 0 751.24 219.00
  L 751.27 189.02
  A 1.00 1.00 0.0 0 0 750.27 188.02
  Q 692.38 187.98 634.50 188.00
  Q 628.88 188.01 618.94 185.80
  C 616.33 185.22 614.28 185.30 614.29 188.58
  Q 614.33 203.74 614.05 218.98
  A 1.01 1.00 -89.7 0 0 615.05 220.00
  L 661.25 220.00
  A 1.00 1.00 0.0 0 1 662.25 221.00
  L 662.25 346.51
  A 1.00 1.00 0.0 0 0 663.25 347.51
  L 702.25 347.47
  A 1.00 1.00 0.0 0 0 703.25 346.47
  L 703.25 221.00
  A 1.00 1.00 0.0 0 1 704.25 220.00"
/>
<path stroke="#8fa5e5" vector-effect="non-scaling-stroke" d="
  M 1254.93 220.00
  A 0.57 0.57 0.0 0 1 1255.50 220.57
  L 1255.50 315.43
  A 0.57 0.57 0.0 0 1 1254.93 316.00
  L 1235.31 316.01
  A 0.57 0.57 0.0 0 0 1234.74 316.58
  L 1234.77 346.93
  A 0.57 0.57 0.0 0 0 1235.34 347.50
  L 1316.63 347.50
  A 0.57 0.57 0.0 0 0 1317.20 346.93
  L 1317.27 316.57
  A 0.57 0.57 0.0 0 0 1316.70 316.00
  L 1297.31 316.00
  A 0.57 0.57 0.0 0 1 1296.74 315.43
  L 1296.75 220.57
  A 0.57 0.57 0.0 0 1 1297.32 220.00
  L 1316.68 220.00
  A 0.57 0.57 0.0 0 0 1317.25 219.43
  L 1317.25 188.57
  A 0.57 0.57 0.0 0 0 1316.68 188.00
  L 1235.31 188.00
  A 0.57 0.57 0.0 0 0 1234.74 188.57
  L 1234.76 219.43
  A 0.57 0.57 0.0 0 0 1235.33 220.00
  L 1254.93 220.00"
/>
<path stroke="#8fa5e5" vector-effect="non-scaling-stroke" d="
  M 1338.99 347.31
  Q 1380.94 347.57 1422.00 347.49
  Q 1436.34 347.46 1441.95 346.48
  Q 1469.69 341.61 1477.42 313.74
  C 1479.41 306.55 1479.66 298.25 1479.71 290.50
  Q 1479.85 264.59 1479.69 238.69
  C 1479.56 217.57 1470.92 198.09 1449.39 191.49
  Q 1437.99 187.99 1429.75 187.99
  Q 1384.29 188.00 1339.00 188.00
  A 1.00 1.00 0.0 0 0 1338.00 189.00
  L 1338.00 346.31
  A 1.00 1.00 0.0 0 0 1338.99 347.31"
/>
<path stroke="#8fa5e5" vector-effect="non-scaling-stroke" d="
  M 1145.44 258.50
  Q 1145.54 287.22 1145.71 315.94
  C 1145.83 336.26 1159.23 349.85 1179.51 349.90
  Q 1193.40 349.94 1222.34 347.34
  A 1.00 0.99 -2.5 0 0 1223.25 346.35
  L 1223.25 318.99
  A 1.00 1.00 0.0 0 0 1222.25 317.99
  Q 1208.66 318.02 1195.03 317.99
  C 1187.31 317.97 1185.58 314.39 1185.44 306.99
  Q 1185.00 282.68 1185.38 258.38
  A 1.01 1.01 0.0 0 1 1186.39 257.39
  L 1213.18 257.55
  A 1.01 1.00 0.0 0 0 1214.19 256.55
  L 1214.28 228.00
  A 1.00 1.00 0.0 0 0 1213.28 227.00
  L 1186.44 227.00
  A 1.00 1.00 0.0 0 1 1185.44 226.00
  L 1185.44 200.54
  A 1.00 1.00 0.0 0 0 1184.45 199.54
  L 1150.90 199.31
  A 0.99 0.99 0.0 0 0 1149.91 200.14
  L 1145.63 226.16
  A 1.01 1.00 -85.3 0 1 1144.64 227.00
  L 1132.75 227.00
  A 1.00 1.00 0.0 0 0 1131.75 228.00
  L 1131.75 256.50
  A 1.00 1.00 0.0 0 0 1132.75 257.50
  L 1144.44 257.50
  A 1.00 1.00 0.0 0 1 1145.44 258.50"
/>
<path stroke="#8fa5e5" vector-effect="non-scaling-stroke" d="
  M 792.91 240.39
  Q 791.55 241.55 791.28 239.79
  L 789.39 227.84
  A 1.00 0.99 -4.3 0 0 788.40 227.00
  L 754.98 227.00
  A 1.00 0.99 -87.5 0 0 753.99 227.91
  Q 753.68 231.41 753.79 234.91
  Q 754.01 242.03 754.01 242.11
  Q 753.99 294.39 754.00 346.50
  A 1.00 1.00 0.0 0 0 755.00 347.50
  L 792.76 347.50
  A 1.00 1.00 0.0 0 0 793.76 346.50
  L 793.75 267.26
  A 0.99 0.99 0.0 0 1 794.37 266.34
  C 804.70 262.10 814.32 260.26 826.24 260.07
  Q 834.12 259.94 842.00 259.91
  A 1.01 1.01 0.0 0 0 843.00 258.91
  L 843.06 225.67
  A 1.00 1.00 0.0 0 0 842.14 224.67
  Q 813.98 222.41 792.91 240.39"
/>
<path stroke="#8fa5e5" vector-effect="non-scaling-stroke" d="
  M 945.29 337.91
  L 947.20 346.71
  A 1.00 1.00 0.0 0 0 948.18 347.50
  L 981.76 347.50
  A 1.00 1.00 0.0 0 0 982.76 346.50
  L 982.75 228.00
  A 1.00 1.00 0.0 0 0 981.75 227.00
  L 943.75 227.00
  A 1.00 1.00 0.0 0 0 942.75 228.00
  L 942.75 311.69
  A 1.00 0.99 -8.8 0 1 942.05 312.64
  Q 927.15 317.30 911.65 317.06
  C 903.97 316.94 899.14 315.29 899.23 306.74
  Q 899.39 291.07 899.18 228.00
  A 1.00 1.00 0.0 0 0 898.18 227.00
  L 860.38 227.00
  A 1.00 0.99 1.5 0 0 859.38 227.94
  Q 858.97 234.62 859.07 241.30
  C 859.41 263.66 859.23 286.03 859.29 308.39
  Q 859.33 322.97 860.84 327.83
  C 864.66 340.10 876.12 348.30 888.98 349.52
  Q 918.87 352.36 943.80 337.26
  A 1.00 1.00 0.0 0 1 945.29 337.91"
/>
<path stroke="#8fa5e5" vector-effect="non-scaling-stroke" d="
  M 1082.49 304.00
  Q 1082.79 309.68 1082.18 312.48
  Q 1080.78 318.98 1073.93 318.98
  Q 1038.06 319.00 1002.29 316.21
  A 1.00 0.99 1.9 0 0 1001.22 317.21
  L 1001.27 344.43
  A 1.00 0.99 2.9 0 0 1002.17 345.42
  C 1031.13 348.24 1059.54 350.22 1088.32 349.87
  Q 1103.87 349.67 1113.92 339.49
  C 1121.34 331.96 1122.72 321.73 1122.61 311.62
  C 1122.48 299.62 1120.95 288.62 1111.48 280.75
  Q 1101.71 272.63 1088.25 272.60
  Q 1069.59 272.56 1050.95 272.44
  C 1043.95 272.40 1037.59 270.33 1039.24 262.01
  C 1040.03 258.05 1044.02 256.60 1047.95 256.58
  Q 1078.95 256.44 1110.02 256.49
  A 1.00 1.00 0.0 0 0 1111.02 255.49
  L 1110.99 228.02
  A 1.00 1.00 0.0 0 0 1109.99 227.02
  Q 1071.87 226.97 1033.75 226.97
  C 1019.62 226.97 1004.77 234.44 1000.73 248.74
  C 998.16 257.87 998.12 270.68 1000.18 279.35
  C 1002.66 289.82 1011.04 298.46 1021.25 301.59
  Q 1025.93 303.03 1036.39 303.00
  Q 1058.95 302.96 1081.50 303.06
  A 0.99 0.99 0.0 0 1 1082.49 304.00"
/>
<path stroke="#9c9c9c" vector-effect="non-scaling-stroke" d="
  M 808.0083 408.6316
  A 0.63 0.63 0.0 0 0 807.3794 408.0005
  L 795.3994 407.9796
  A 0.63 0.63 0.0 0 0 794.7683 408.6085
  L 794.7517 418.1084
  A 0.63 0.63 0.0 0 0 795.3806 418.7395
  L 807.3606 418.7604
  A 0.63 0.63 0.0 0 0 807.9917 418.1315
  L 808.0083 408.6316"
/>
<path stroke="#9c9c9c" vector-effect="non-scaling-stroke" d="
  M 818.75 436.00
  L 818.75 460.99
  A 1.00 1.00 0.0 0 0 819.75 461.99
  L 831.00 462.00
  A 1.00 1.00 0.0 0 0 832.00 461.00
  L 832.00 435.92
  A 1.00 1.00 0.0 0 1 833.01 434.92
  L 843.75 435.03
  A 1.00 0.99 0.0 0 0 844.76 434.03
  L 844.72 425.99
  A 1.00 1.00 0.0 0 0 843.72 425.00
  L 833.01 425.00
  A 1.01 1.01 0.0 0 1 832.01 424.13
  Q 831.68 421.61 832.61 419.31
  A 1.00 0.98 11.0 0 1 833.55 418.69
  L 847.49 418.89
  A 1.00 0.99 -89.4 0 0 848.50 417.89
  L 848.50 410.09
  A 1.00 0.99 -88.8 0 0 847.55 409.09
  C 836.47 408.57 827.30 405.27 819.47 413.18
  A 1.05 1.01 -22.2 0 0 819.18 413.84
  L 818.64 424.05
  A 1.00 1.00 0.0 0 1 817.64 425.00
  L 814.25 425.00
  A 1.00 1.00 0.0 0 0 813.25 426.00
  L 813.25 434.00
  A 1.00 1.00 0.0 0 0 814.25 435.00
  L 817.75 435.00
  A 1.00 1.00 0.0 0 1 818.75 436.00"
/>
<path stroke="#9c9c9c" vector-effect="non-scaling-stroke" d="
  M 999.9973 408.4129
  A 0.47 0.47 0.0 0 0 999.5233 407.9470
  L 987.3237 408.0534
  A 0.47 0.47 0.0 0 0 986.8578 408.5275
  L 986.9427 418.2471
  A 0.47 0.47 0.0 0 0 987.4167 418.7130
  L 999.6163 418.6066
  A 0.47 0.47 0.0 0 0 1000.0822 418.1325
  L 999.9973 408.4129"
/>
<path stroke="#9c9c9c" vector-effect="non-scaling-stroke" d="
  M 682.08 445.18
  A 0.32 0.32 0.0 0 1 681.48 445.18
  L 669.01 409.22
  A 0.32 0.32 0.0 0 0 668.71 409.01
  L 654.54 408.98
  A 0.32 0.32 0.0 0 0 654.24 409.41
  L 674.12 461.79
  A 0.32 0.32 0.0 0 0 674.42 462.00
  L 689.24 462.00
  A 0.32 0.32 0.0 0 0 689.54 461.79
  L 709.48 409.43
  A 0.32 0.32 0.0 0 0 709.19 409.00
  L 695.07 409.00
  A 0.32 0.32 0.0 0 0 694.76 409.21
  L 682.08 445.18"
/>
<path stroke="#9c9c9c" vector-effect="non-scaling-stroke" d="
  M 1054.75 421.46
  L 1054.75 410.00
  A 1.00 1.00 0.0 0 0 1053.75 409.00
  L 1042.24 409.00
  A 1.00 1.00 0.0 0 0 1041.24 410.00
  L 1041.27 461.24
  Q 1041.27 464.32 1044.30 464.90
  C 1046.96 465.41 1052.12 466.45 1054.47 464.01
  A 1.05 1.01 -24.3 0 0 1054.75 463.31
  L 1054.75 432.80
  A 1.00 0.99 88.2 0 1 1055.68 431.80
  L 1066.50 431.08
  Q 1068.97 430.92 1069.08 434.00
  Q 1069.63 449.16 1068.84 464.34
  A 1.01 1.00 1.9 0 0 1069.83 465.39
  L 1081.47 465.55
  A 1.01 1.00 -89.2 0 0 1082.49 464.55
  Q 1082.51 449.72 1082.49 436.61
  Q 1082.48 429.65 1081.32 427.01
  Q 1078.99 421.74 1072.47 421.05
  Q 1065.74 420.33 1055.96 422.43
  A 1.00 0.99 -6.1 0 1 1054.75 421.46"
/>
<path stroke="#9c9c9c" vector-effect="non-scaling-stroke" d="
  M 1109.17 418.74
  A 0.50 0.50 0.0 0 0 1109.67 419.25
  L 1124.78 419.25
  A 0.50 0.50 0.0 0 1 1125.28 419.75
  L 1125.19 461.50
  A 0.50 0.50 0.0 0 0 1125.69 462.00
  L 1138.52 462.00
  A 0.50 0.50 0.0 0 0 1139.02 461.50
  L 1138.80 419.75
  A 0.50 0.50 0.0 0 1 1139.30 419.25
  L 1154.50 419.25
  A 0.50 0.50 0.0 0 0 1155.00 418.75
  L 1155.00 409.50
  A 0.50 0.50 0.0 0 0 1154.50 409.00
  L 1109.78 409.00
  A 0.50 0.50 0.0 0 0 1109.28 409.49
  L 1109.17 418.74"
/>
<path stroke="#9c9c9c" vector-effect="non-scaling-stroke" d="
  M 1285.95 432.99
  Q 1286.04 441.25 1286.00 449.50
  C 1285.96 456.54 1288.93 463.16 1296.93 462.91
  Q 1302.73 462.74 1311.10 461.93
  A 0.99 0.99 0.0 0 0 1312.00 460.94
  L 1312.00 453.77
  A 1.01 1.00 0.3 0 0 1311.00 452.77
  Q 1306.90 452.76 1302.83 452.53
  Q 1299.29 452.33 1299.27 449.49
  Q 1299.21 441.30 1299.28 433.02
  A 1.00 1.00 0.0 0 1 1300.27 432.02
  L 1307.98 431.94
  A 1.00 1.00 0.0 0 0 1308.97 430.93
  L 1308.87 422.99
  A 1.00 0.99 89.7 0 0 1307.88 422.00
  L 1300.25 422.00
  A 1.00 1.00 0.0 0 1 1299.25 421.00
  L 1299.25 413.81
  A 1.00 1.00 0.0 0 0 1298.28 412.81
  L 1288.36 412.50
  A 1.01 1.01 0.0 0 0 1287.33 413.36
  L 1286.26 421.14
  A 1.01 1.00 3.9 0 1 1285.26 422.00
  L 1282.25 422.00
  A 1.00 1.00 0.0 0 0 1281.25 423.00
  L 1281.25 431.00
  A 1.00 1.00 0.0 0 0 1282.25 432.00
  L 1284.95 432.00
  A 1.00 1.00 0.0 0 1 1285.95 432.99"
/>
<path stroke="#9c9c9c" vector-effect="non-scaling-stroke" d="
  M 1024.29 432.02
  L 1032.01 431.96
  A 1.00 1.00 0.0 0 0 1033.00 430.96
  L 1033.00 423.00
  A 1.00 1.00 0.0 0 0 1032.00 422.00
  L 1024.25 422.00
  A 1.00 1.00 0.0 0 1 1023.25 421.00
  L 1023.25 413.75
  A 1.00 1.00 0.0 0 0 1022.25 412.75
  L 1012.31 412.75
  A 1.00 1.00 0.0 0 0 1011.32 413.61
  L 1010.30 421.14
  A 1.01 1.00 3.9 0 1 1009.30 422.00
  L 1006.25 422.00
  A 1.00 1.00 0.0 0 0 1005.25 423.00
  L 1005.25 431.00
  A 1.00 1.00 0.0 0 0 1006.25 432.00
  L 1008.93 432.00
  A 1.00 1.00 0.0 0 1 1009.93 432.99
  Q 1010.16 448.25 1010.32 451.97
  C 1010.69 461.02 1016.30 463.47 1024.17 462.76
  Q 1029.51 462.27 1034.82 463.27
  A 1.00 1.00 0.0 0 0 1036.00 462.29
  L 1036.00 453.77
  A 1.01 1.00 0.6 0 0 1035.01 452.77
  Q 1030.88 452.71 1026.77 452.49
  Q 1023.40 452.31 1023.26 449.51
  Q 1023.13 446.82 1023.30 433.00
  A 0.99 0.99 0.0 0 1 1024.29 432.02"
/>
<path stroke="#9c9c9c" vector-effect="non-scaling-stroke" d="
  M 724.05 447.25
  L 748.22 447.25
  A 1.00 1.00 0.0 0 0 749.22 446.27
  Q 749.35 440.24 749.17 434.18
  C 748.71 418.21 735.95 420.74 722.87 421.04
  C 713.77 421.25 710.14 424.95 709.83 434.31
  Q 709.48 444.89 709.86 452.32
  C 710.20 459.01 714.59 463.06 721.18 462.99
  Q 734.04 462.85 746.86 461.21
  A 1.01 1.00 -4.0 0 0 747.73 460.22
  L 747.79 453.11
  A 1.00 0.99 87.2 0 0 746.69 452.11
  Q 735.71 453.26 724.66 452.96
  A 1.00 0.97 72.8 0 1 723.87 452.53
  Q 722.48 450.54 723.08 448.02
  A 1.00 1.00 0.0 0 1 724.05 447.25"
/>
<path stroke="#9c9c9c" vector-effect="non-scaling-stroke" d="
  M 768.44 424.79
  L 768.18 422.87
  A 1.01 1.00 86.0 0 0 767.19 422.00
  L 757.26 422.00
  A 1.00 1.00 0.0 0 0 756.26 423.00
  L 756.23 461.00
  A 1.00 1.00 0.0 0 0 757.23 462.00
  L 768.25 462.00
  A 1.00 1.00 0.0 0 0 769.25 461.00
  L 769.31 435.81
  A 1.01 1.00 80.1 0 1 769.97 434.86
  Q 777.19 432.31 784.91 433.14
  A 1.00 0.99 -87.2 0 0 786.01 432.14
  L 785.97 421.99
  A 1.00 1.00 0.0 0 0 784.99 420.99
  Q 776.68 420.84 770.01 425.48
  A 1.00 1.00 0.0 0 1 768.44 424.79"
/>
<path stroke="#9c9c9c" vector-effect="non-scaling-stroke" d="
  M 1168.16 424.93
  Q 1168.12 422.67 1166.30 422.18
  Q 1165.97 422.09 1162.76 421.99
  Q 1159.77 421.89 1156.71 422.12
  A 1.00 1.00 0.0 0 0 1155.79 423.12
  L 1155.61 461.00
  A 1.00 1.00 0.0 0 0 1156.61 462.00
  L 1168.00 462.00
  A 1.00 1.00 0.0 0 0 1169.00 461.00
  L 1169.00 435.89
  A 1.00 0.99 77.3 0 1 1169.56 434.99
  C 1173.80 432.91 1179.24 432.94 1184.26 432.90
  A 1.00 1.00 0.0 0 0 1185.25 431.90
  L 1185.25 422.01
  A 1.01 1.00 0.9 0 0 1184.27 421.01
  Q 1175.96 420.81 1169.43 425.57
  Q 1168.18 426.47 1168.16 424.93"
/>
<path stroke="#9c9c9c" vector-effect="non-scaling-stroke" d="
  M 868.12 445.48
  L 859.78 422.66
  A 1.00 1.00 0.0 0 0 858.84 422.00
  L 846.92 422.00
  A 1.00 1.00 0.0 0 0 846.00 423.39
  Q 853.76 441.64 861.33 459.97
  Q 862.69 463.27 859.29 464.80
  Q 858.09 465.34 851.72 465.51
  A 1.00 0.99 89.4 0 0 850.75 466.51
  L 850.75 473.95
  A 1.00 0.99 2.9 0 0 851.65 474.94
  Q 855.05 475.30 858.47 475.66
  C 867.77 476.66 872.60 472.77 875.73 464.23
  Q 883.18 443.85 890.57 423.34
  A 1.00 1.00 0.0 0 0 889.63 422.00
  L 877.72 422.00
  A 1.01 1.00 8.6 0 0 876.76 422.70
  L 869.64 445.44
  Q 868.93 447.69 868.12 445.48"
/>
<path stroke="#9c9c9c" vector-effect="non-scaling-stroke" d="
  M 945.77 438.81
  A 0.33 0.33 0.0 0 1 946.40 438.81
  L 953.49 461.77
  A 0.33 0.33 0.0 0 0 953.80 462.00
  L 967.53 462.00
  A 0.33 0.33 0.0 0 0 967.84 461.77
  L 980.06 422.43
  A 0.33 0.33 0.0 0 0 979.74 422.00
  L 966.01 422.00
  A 0.33 0.33 0.0 0 0 965.69 422.24
  L 959.26 445.23
  A 0.33 0.33 0.0 0 1 958.62 445.23
  L 952.23 422.24
  A 0.33 0.33 0.0 0 0 951.91 422.00
  L 940.09 422.00
  A 0.33 0.33 0.0 0 0 939.77 422.24
  L 933.31 445.25
  A 0.33 0.33 0.0 0 1 932.67 445.25
  L 926.31 422.24
  A 0.33 0.33 0.0 0 0 925.99 422.00
  L 912.20 422.00
  A 0.33 0.33 0.0 0 0 911.88 422.43
  L 924.19 461.77
  A 0.33 0.33 0.0 0 0 924.50 462.00
  L 938.11 462.00
  A 0.33 0.33 0.0 0 0 938.42 461.77
  L 945.77 438.81"
/>
<path stroke="#9c9c9c" vector-effect="non-scaling-stroke" d="
  M 1219.94 459.74
  L 1220.00 461.05
  A 1.00 0.99 -1.2 0 0 1221.00 462.00
  L 1230.72 462.00
  A 1.00 1.00 0.0 0 0 1231.72 461.00
  L 1231.92 423.00
  A 1.00 1.00 0.0 0 0 1230.92 422.00
  L 1219.75 422.00
  A 1.00 1.00 0.0 0 0 1218.75 423.00
  L 1218.75 449.66
  A 1.00 1.00 0.0 0 1 1217.94 450.64
  C 1214.12 451.39 1203.97 454.66 1203.99 447.79
  Q 1204.03 435.40 1203.98 422.99
  A 1.00 1.00 0.0 0 0 1202.98 422.00
  L 1191.91 422.01
  A 1.00 0.99 0.9 0 0 1190.91 422.97
  Q 1190.41 437.48 1191.01 451.97
  C 1191.65 467.22 1210.03 464.23 1218.41 458.94
  A 1.00 1.00 0.0 0 1 1219.94 459.74"
/>
<path stroke="#9c9c9c" vector-effect="non-scaling-stroke" d="
  M 1250.52 436.06
  Q 1250.32 433.37 1252.01 431.57
  A 1.02 0.99 -67.9 0 1 1252.74 431.25
  L 1273.75 431.25
  A 1.00 1.00 0.0 0 0 1274.75 430.25
  L 1274.75 423.03
  A 1.00 1.00 0.0 0 0 1273.76 422.03
  Q 1262.42 421.91 1251.11 422.06
  C 1241.16 422.18 1235.83 426.58 1237.29 437.12
  C 1239.16 450.55 1254.89 447.24 1264.18 447.26
  A 0.99 0.99 0.0 0 1 1265.17 448.21
  Q 1265.28 450.43 1264.20 452.24
  A 0.99 0.98 14.8 0 1 1263.37 452.72
  Q 1251.19 453.08 1239.15 451.30
  A 1.00 1.00 0.0 0 0 1238.00 452.29
  L 1238.00 460.25
  A 1.01 1.00 -86.8 0 0 1238.89 461.25
  C 1248.58 462.32 1258.07 462.43 1267.78 462.94
  C 1277.68 463.45 1280.16 451.10 1277.52 443.81
  C 1274.13 434.42 1259.14 437.03 1251.51 436.98
  A 1.01 1.00 87.8 0 1 1250.52 436.06"
/>
<path stroke="#9c9c9c" vector-effect="non-scaling-stroke" d="
  M 794.27 433.25
  A 0.48 0.48 0.0 0 1 794.75 433.73
  L 794.75 461.51
  A 0.48 0.48 0.0 0 0 795.23 461.99
  L 807.52 462.00
  A 0.48 0.48 0.0 0 0 808.00 461.52
  L 808.00 423.68
  A 0.48 0.48 0.0 0 0 807.51 423.20
  L 789.47 423.45
  A 0.48 0.48 0.0 0 0 789.00 423.93
  L 789.00 432.77
  A 0.48 0.48 0.0 0 0 789.48 433.25
  L 794.27 433.25"
/>
<path stroke="#9c9c9c" vector-effect="non-scaling-stroke" d="
  M 980.92 432.71
  A 0.48 0.48 0.0 0 0 981.39 433.21
  L 986.30 433.31
  A 0.48 0.48 0.0 0 1 986.77 433.79
  L 986.90 461.52
  A 0.48 0.48 0.0 0 0 987.38 462.00
  L 999.55 462.00
  A 0.48 0.48 0.0 0 0 1000.03 461.52
  L 999.99 423.80
  A 0.48 0.48 0.0 0 0 999.51 423.32
  L 981.72 423.24
  A 0.48 0.48 0.0 0 0 981.24 423.70
  L 980.92 432.71"
/>
<path stroke="#8fa5e5" vector-effect="non-scaling-stroke" d="
  M 238.06 278.15
  L 327.42 226.75
  A 1.00 1.00 0.0 0 1 328.42 226.75
  L 417.76 278.10
  A 1.01 1.00 -75.0 0 1 418.26 278.97
  L 418.26 380.90
  A 1.00 0.99 -15.3 0 1 417.76 381.76
  L 328.47 433.15
  A 1.00 1.00 0.0 0 1 327.47 433.15
  L 280.50 406.18
  A 1.01 1.00 -75.0 0 1 280.00 405.31
  L 280.00 303.49
  A 1.01 1.00 75.0 0 1 280.50 302.62
  L 327.40 275.78
  A 1.02 1.02 0.0 0 1 328.40 275.78
  L 375.50 302.72
  A 1.01 1.00 -75.0 0 1 376.00 303.59
  L 376.00 356.28
  A 1.01 1.00 -15.0 0 1 375.49 357.15
  L 328.62 383.96
  A 1.01 0.98 43.6 0 1 327.66 383.97
  L 323.03 381.50
  A 1.01 0.99 -76.3 0 1 322.50 380.61
  L 322.50 328.72
  A 0.99 0.99 0.0 0 1 322.98 327.87
  Q 334.32 320.97 345.96 314.52
  C 347.23 313.82 351.62 313.51 347.46 311.19
  Q 337.96 305.90 328.39 300.68
  A 1.02 1.01 44.2 0 0 327.42 300.69
  L 302.03 315.10
  A 0.99 0.98 75.6 0 0 301.53 315.96
  L 301.44 392.92
  A 1.00 0.99 15.3 0 0 301.94 393.78
  L 327.45 408.64
  A 1.00 1.00 0.0 0 0 328.45 408.64
  L 396.99 369.30
  A 1.01 1.00 -15.0 0 0 397.50 368.43
  L 397.51 291.48
  A 1.01 1.00 -75.0 0 0 397.01 290.61
  L 328.46 251.23
  A 1.01 1.00 44.5 0 0 327.47 251.23
  L 258.75 290.69
  A 1.01 1.00 75.0 0 0 258.25 291.56
  L 258.25 417.87
  A 1.01 1.00 15.0 0 0 258.76 418.74
  L 327.43 457.71
  A 1.01 1.00 -44.5 0 0 328.42 457.71
  L 439.50 394.22
  A 1.01 1.00 75.0 0 0 440.00 393.35
  L 440.00 266.49
  A 1.01 1.00 -75.0 0 0 439.50 265.62
  L 328.48 202.17
  A 1.01 1.00 44.5 0 0 327.49 202.17
  L 216.50 265.64
  A 1.01 1.00 75.0 0 0 216.00 266.51
  L 216.00 393.50
  A 1.00 0.98 -75.8 0 0 216.51 394.37
  L 235.99 405.23
  A 1.01 1.00 -75.5 0 0 237.48 404.35
  Q 237.49 373.74 237.42 343.32
  Q 237.34 311.15 237.56 279.01
  A 1.00 0.99 -15.3 0 1 238.06 278.15"
/>
<path stroke="#8fa5e5" vector-effect="non-scaling-stroke" d="
  M 1438.72 243.24
  C 1438.68 226.22 1431.82 219.94 1415.00 219.96
  Q 1397.42 219.99 1380.00 220.01
  A 1.00 1.00 0.0 0 0 1379.00 221.01
  L 1379.00 314.99
  A 1.01 1.00 0.3 0 0 1380.00 315.99
  Q 1395.99 316.04 1411.96 315.97
  C 1430.29 315.88 1438.58 311.38 1438.67 291.75
  Q 1438.78 267.49 1438.72 243.24"
/>
<path stroke="#9c9c9c" vector-effect="non-scaling-stroke" d="
  M 723.36 431.67
  L 722.94 436.92
  A 1.01 1.00 -87.9 0 0 723.94 438.00
  L 734.97 438.00
  A 1.00 1.00 0.0 0 0 735.95 437.18
  Q 736.53 433.99 735.02 431.26
  A 1.00 0.98 -14.2 0 0 734.15 430.75
  L 724.35 430.75
  A 1.00 0.99 -87.8 0 0 723.36 431.67"
/>
</g>
<path fill="#ffffff" d="
  M 0.00 0.00
  L 1576.00 0.00
  L 1576.00 716.00
  L 0.00 716.00
  L 0.00 0.00
  Z
  M 558.10 197.65
  C 559.10 193.87 557.79 191.13 554.29 189.16
  C 548.15 185.70 541.44 182.38 535.72 179.08
  Q 373.83 85.82 344.94 69.06
  Q 335.14 63.38 324.57 64.33
  C 318.59 64.87 313.59 67.46 308.29 70.53
  Q 260.42 98.24 114.05 182.54
  C 99.18 191.11 94.00 202.04 94.00 219.00
  Q 94.00 330.09 94.01 441.19
  C 94.01 445.95 94.37 452.98 96.25 457.81
  Q 100.76 469.43 110.79 475.23
  Q 206.16 530.34 301.58 585.36
  C 305.88 587.84 314.24 593.25 318.73 594.49
  Q 332.11 598.19 342.94 591.95
  Q 443.48 534.01 543.95 475.97
  C 554.99 469.59 561.79 458.16 561.83 445.05
  Q 562.17 329.74 561.89 214.44
  Q 561.87 205.90 558.17 198.34
  A 1.03 1.01 -51.3 0 1 558.10 197.65
  Z
  M 704.25 220.00
  L 750.24 220.00
  A 1.00 1.00 0.0 0 0 751.24 219.00
  L 751.27 189.02
  A 1.00 1.00 0.0 0 0 750.27 188.02
  Q 692.38 187.98 634.50 188.00
  Q 628.88 188.01 618.94 185.80
  C 616.33 185.22 614.28 185.30 614.29 188.58
  Q 614.33 203.74 614.05 218.98
  A 1.01 1.00 -89.7 0 0 615.05 220.00
  L 661.25 220.00
  A 1.00 1.00 0.0 0 1 662.25 221.00
  L 662.25 346.51
  A 1.00 1.00 0.0 0 0 663.25 347.51
  L 702.25 347.47
  A 1.00 1.00 0.0 0 0 703.25 346.47
  L 703.25 221.00
  A 1.00 1.00 0.0 0 1 704.25 220.00
  Z
  M 1254.93 220.00
  A 0.57 0.57 0.0 0 1 1255.50 220.57
  L 1255.50 315.43
  A 0.57 0.57 0.0 0 1 1254.93 316.00
  L 1235.31 316.01
  A 0.57 0.57 0.0 0 0 1234.74 316.58
  L 1234.77 346.93
  A 0.57 0.57 0.0 0 0 1235.34 347.50
  L 1316.63 347.50
  A 0.57 0.57 0.0 0 0 1317.20 346.93
  L 1317.27 316.57
  A 0.57 0.57 0.0 0 0 1316.70 316.00
  L 1297.31 316.00
  A 0.57 0.57 0.0 0 1 1296.74 315.43
  L 1296.75 220.57
  A 0.57 0.57 0.0 0 1 1297.32 220.00
  L 1316.68 220.00
  A 0.57 0.57 0.0 0 0 1317.25 219.43
  L 1317.25 188.57
  A 0.57 0.57 0.0 0 0 1316.68 188.00
  L 1235.31 188.00
  A 0.57 0.57 0.0 0 0 1234.74 188.57
  L 1234.76 219.43
  A 0.57 0.57 0.0 0 0 1235.33 220.00
  L 1254.93 220.00
  Z
  M 1338.99 347.31
  Q 1380.94 347.57 1422.00 347.49
  Q 1436.34 347.46 1441.95 346.48
  Q 1469.69 341.61 1477.42 313.74
  C 1479.41 306.55 1479.66 298.25 1479.71 290.50
  Q 1479.85 264.59 1479.69 238.69
  C 1479.56 217.57 1470.92 198.09 1449.39 191.49
  Q 1437.99 187.99 1429.75 187.99
  Q 1384.29 188.00 1339.00 188.00
  A 1.00 1.00 0.0 0 0 1338.00 189.00
  L 1338.00 346.31
  A 1.00 1.00 0.0 0 0 1338.99 347.31
  Z
  M 1145.44 258.50
  Q 1145.54 287.22 1145.71 315.94
  C 1145.83 336.26 1159.23 349.85 1179.51 349.90
  Q 1193.40 349.94 1222.34 347.34
  A 1.00 0.99 -2.5 0 0 1223.25 346.35
  L 1223.25 318.99
  A 1.00 1.00 0.0 0 0 1222.25 317.99
  Q 1208.66 318.02 1195.03 317.99
  C 1187.31 317.97 1185.58 314.39 1185.44 306.99
  Q 1185.00 282.68 1185.38 258.38
  A 1.01 1.01 0.0 0 1 1186.39 257.39
  L 1213.18 257.55
  A 1.01 1.00 0.0 0 0 1214.19 256.55
  L 1214.28 228.00
  A 1.00 1.00 0.0 0 0 1213.28 227.00
  L 1186.44 227.00
  A 1.00 1.00 0.0 0 1 1185.44 226.00
  L 1185.44 200.54
  A 1.00 1.00 0.0 0 0 1184.45 199.54
  L 1150.90 199.31
  A 0.99 0.99 0.0 0 0 1149.91 200.14
  L 1145.63 226.16
  A 1.01 1.00 -85.3 0 1 1144.64 227.00
  L 1132.75 227.00
  A 1.00 1.00 0.0 0 0 1131.75 228.00
  L 1131.75 256.50
  A 1.00 1.00 0.0 0 0 1132.75 257.50
  L 1144.44 257.50
  A 1.00 1.00 0.0 0 1 1145.44 258.50
  Z
  M 792.91 240.39
  Q 791.55 241.55 791.28 239.79
  L 789.39 227.84
  A 1.00 0.99 -4.3 0 0 788.40 227.00
  L 754.98 227.00
  A 1.00 0.99 -87.5 0 0 753.99 227.91
  Q 753.68 231.41 753.79 234.91
  Q 754.01 242.03 754.01 242.11
  Q 753.99 294.39 754.00 346.50
  A 1.00 1.00 0.0 0 0 755.00 347.50
  L 792.76 347.50
  A 1.00 1.00 0.0 0 0 793.76 346.50
  L 793.75 267.26
  A 0.99 0.99 0.0 0 1 794.37 266.34
  C 804.70 262.10 814.32 260.26 826.24 260.07
  Q 834.12 259.94 842.00 259.91
  A 1.01 1.01 0.0 0 0 843.00 258.91
  L 843.06 225.67
  A 1.00 1.00 0.0 0 0 842.14 224.67
  Q 813.98 222.41 792.91 240.39
  Z
  M 945.29 337.91
  L 947.20 346.71
  A 1.00 1.00 0.0 0 0 948.18 347.50
  L 981.76 347.50
  A 1.00 1.00 0.0 0 0 982.76 346.50
  L 982.75 228.00
  A 1.00 1.00 0.0 0 0 981.75 227.00
  L 943.75 227.00
  A 1.00 1.00 0.0 0 0 942.75 228.00
  L 942.75 311.69
  A 1.00 0.99 -8.8 0 1 942.05 312.64
  Q 927.15 317.30 911.65 317.06
  C 903.97 316.94 899.14 315.29 899.23 306.74
  Q 899.39 291.07 899.18 228.00
  A 1.00 1.00 0.0 0 0 898.18 227.00
  L 860.38 227.00
  A 1.00 0.99 1.5 0 0 859.38 227.94
  Q 858.97 234.62 859.07 241.30
  C 859.41 263.66 859.23 286.03 859.29 308.39
  Q 859.33 322.97 860.84 327.83
  C 864.66 340.10 876.12 348.30 888.98 349.52
  Q 918.87 352.36 943.80 337.26
  A 1.00 1.00 0.0 0 1 945.29 337.91
  Z
  M 1082.49 304.00
  Q 1082.79 309.68 1082.18 312.48
  Q 1080.78 318.98 1073.93 318.98
  Q 1038.06 319.00 1002.29 316.21
  A 1.00 0.99 1.9 0 0 1001.22 317.21
  L 1001.27 344.43
  A 1.00 0.99 2.9 0 0 1002.17 345.42
  C 1031.13 348.24 1059.54 350.22 1088.32 349.87
  Q 1103.87 349.67 1113.92 339.49
  C 1121.34 331.96 1122.72 321.73 1122.61 311.62
  C 1122.48 299.62 1120.95 288.62 1111.48 280.75
  Q 1101.71 272.63 1088.25 272.60
  Q 1069.59 272.56 1050.95 272.44
  C 1043.95 272.40 1037.59 270.33 1039.24 262.01
  C 1040.03 258.05 1044.02 256.60 1047.95 256.58
  Q 1078.95 256.44 1110.02 256.49
  A 1.00 1.00 0.0 0 0 1111.02 255.49
  L 1110.99 228.02
  A 1.00 1.00 0.0 0 0 1109.99 227.02
  Q 1071.87 226.97 1033.75 226.97
  C 1019.62 226.97 1004.77 234.44 1000.73 248.74
  C 998.16 257.87 998.12 270.68 1000.18 279.35
  C 1002.66 289.82 1011.04 298.46 1021.25 301.59
  Q 1025.93 303.03 1036.39 303.00
  Q 1058.95 302.96 1081.50 303.06
  A 0.99 0.99 0.0 0 1 1082.49 304.00
  Z
  M 808.0083 408.6316
  A 0.63 0.63 0.0 0 0 807.3794 408.0005
  L 795.3994 407.9796
  A 0.63 0.63 0.0 0 0 794.7683 408.6085
  L 794.7517 418.1084
  A 0.63 0.63 0.0 0 0 795.3806 418.7395
  L 807.3606 418.7604
  A 0.63 0.63 0.0 0 0 807.9917 418.1315
  L 808.0083 408.6316
  Z
  M 818.75 436.00
  L 818.75 460.99
  A 1.00 1.00 0.0 0 0 819.75 461.99
  L 831.00 462.00
  A 1.00 1.00 0.0 0 0 832.00 461.00
  L 832.00 435.92
  A 1.00 1.00 0.0 0 1 833.01 434.92
  L 843.75 435.03
  A 1.00 0.99 0.0 0 0 844.76 434.03
  L 844.72 425.99
  A 1.00 1.00 0.0 0 0 843.72 425.00
  L 833.01 425.00
  A 1.01 1.01 0.0 0 1 832.01 424.13
  Q 831.68 421.61 832.61 419.31
  A 1.00 0.98 11.0 0 1 833.55 418.69
  L 847.49 418.89
  A 1.00 0.99 -89.4 0 0 848.50 417.89
  L 848.50 410.09
  A 1.00 0.99 -88.8 0 0 847.55 409.09
  C 836.47 408.57 827.30 405.27 819.47 413.18
  A 1.05 1.01 -22.2 0 0 819.18 413.84
  L 818.64 424.05
  A 1.00 1.00 0.0 0 1 817.64 425.00
  L 814.25 425.00
  A 1.00 1.00 0.0 0 0 813.25 426.00
  L 813.25 434.00
  A 1.00 1.00 0.0 0 0 814.25 435.00
  L 817.75 435.00
  A 1.00 1.00 0.0 0 1 818.75 436.00
  Z
  M 999.9973 408.4129
  A 0.47 0.47 0.0 0 0 999.5233 407.9470
  L 987.3237 408.0534
  A 0.47 0.47 0.0 0 0 986.8578 408.5275
  L 986.9427 418.2471
  A 0.47 0.47 0.0 0 0 987.4167 418.7130
  L 999.6163 418.6066
  A 0.47 0.47 0.0 0 0 1000.0822 418.1325
  L 999.9973 408.4129
  Z
  M 682.08 445.18
  A 0.32 0.32 0.0 0 1 681.48 445.18
  L 669.01 409.22
  A 0.32 0.32 0.0 0 0 668.71 409.01
  L 654.54 408.98
  A 0.32 0.32 0.0 0 0 654.24 409.41
  L 674.12 461.79
  A 0.32 0.32 0.0 0 0 674.42 462.00
  L 689.24 462.00
  A 0.32 0.32 0.0 0 0 689.54 461.79
  L 709.48 409.43
  A 0.32 0.32 0.0 0 0 709.19 409.00
  L 695.07 409.00
  A 0.32 0.32 0.0 0 0 694.76 409.21
  L 682.08 445.18
  Z
  M 1054.75 421.46
  L 1054.75 410.00
  A 1.00 1.00 0.0 0 0 1053.75 409.00
  L 1042.24 409.00
  A 1.00 1.00 0.0 0 0 1041.24 410.00
  L 1041.27 461.24
  Q 1041.27 464.32 1044.30 464.90
  C 1046.96 465.41 1052.12 466.45 1054.47 464.01
  A 1.05 1.01 -24.3 0 0 1054.75 463.31
  L 1054.75 432.80
  A 1.00 0.99 88.2 0 1 1055.68 431.80
  L 1066.50 431.08
  Q 1068.97 430.92 1069.08 434.00
  Q 1069.63 449.16 1068.84 464.34
  A 1.01 1.00 1.9 0 0 1069.83 465.39
  L 1081.47 465.55
  A 1.01 1.00 -89.2 0 0 1082.49 464.55
  Q 1082.51 449.72 1082.49 436.61
  Q 1082.48 429.65 1081.32 427.01
  Q 1078.99 421.74 1072.47 421.05
  Q 1065.74 420.33 1055.96 422.43
  A 1.00 0.99 -6.1 0 1 1054.75 421.46
  Z
  M 1109.17 418.74
  A 0.50 0.50 0.0 0 0 1109.67 419.25
  L 1124.78 419.25
  A 0.50 0.50 0.0 0 1 1125.28 419.75
  L 1125.19 461.50
  A 0.50 0.50 0.0 0 0 1125.69 462.00
  L 1138.52 462.00
  A 0.50 0.50 0.0 0 0 1139.02 461.50
  L 1138.80 419.75
  A 0.50 0.50 0.0 0 1 1139.30 419.25
  L 1154.50 419.25
  A 0.50 0.50 0.0 0 0 1155.00 418.75
  L 1155.00 409.50
  A 0.50 0.50 0.0 0 0 1154.50 409.00
  L 1109.78 409.00
  A 0.50 0.50 0.0 0 0 1109.28 409.49
  L 1109.17 418.74
  Z
  M 1285.95 432.99
  Q 1286.04 441.25 1286.00 449.50
  C 1285.96 456.54 1288.93 463.16 1296.93 462.91
  Q 1302.73 462.74 1311.10 461.93
  A 0.99 0.99 0.0 0 0 1312.00 460.94
  L 1312.00 453.77
  A 1.01 1.00 0.3 0 0 1311.00 452.77
  Q 1306.90 452.76 1302.83 452.53
  Q 1299.29 452.33 1299.27 449.49
  Q 1299.21 441.30 1299.28 433.02
  A 1.00 1.00 0.0 0 1 1300.27 432.02
  L 1307.98 431.94
  A 1.00 1.00 0.0 0 0 1308.97 430.93
  L 1308.87 422.99
  A 1.00 0.99 89.7 0 0 1307.88 422.00
  L 1300.25 422.00
  A 1.00 1.00 0.0 0 1 1299.25 421.00
  L 1299.25 413.81
  A 1.00 1.00 0.0 0 0 1298.28 412.81
  L 1288.36 412.50
  A 1.01 1.01 0.0 0 0 1287.33 413.36
  L 1286.26 421.14
  A 1.01 1.00 3.9 0 1 1285.26 422.00
  L 1282.25 422.00
  A 1.00 1.00 0.0 0 0 1281.25 423.00
  L 1281.25 431.00
  A 1.00 1.00 0.0 0 0 1282.25 432.00
  L 1284.95 432.00
  A 1.00 1.00 0.0 0 1 1285.95 432.99
  Z
  M 1024.29 432.02
  L 1032.01 431.96
  A 1.00 1.00 0.0 0 0 1033.00 430.96
  L 1033.00 423.00
  A 1.00 1.00 0.0 0 0 1032.00 422.00
  L 1024.25 422.00
  A 1.00 1.00 0.0 0 1 1023.25 421.00
  L 1023.25 413.75
  A 1.00 1.00 0.0 0 0 1022.25 412.75
  L 1012.31 412.75
  A 1.00 1.00 0.0 0 0 1011.32 413.61
  L 1010.30 421.14
  A 1.01 1.00 3.9 0 1 1009.30 422.00
  L 1006.25 422.00
  A 1.00 1.00 0.0 0 0 1005.25 423.00
  L 1005.25 431.00
  A 1.00 1.00 0.0 0 0 1006.25 432.00
  L 1008.93 432.00
  A 1.00 1.00 0.0 0 1 1009.93 432.99
  Q 1010.16 448.25 1010.32 451.97
  C 1010.69 461.02 1016.30 463.47 1024.17 462.76
  Q 1029.51 462.27 1034.82 463.27
  A 1.00 1.00 0.0 0 0 1036.00 462.29
  L 1036.00 453.77
  A 1.01 1.00 0.6 0 0 1035.01 452.77
  Q 1030.88 452.71 1026.77 452.49
  Q 1023.40 452.31 1023.26 449.51
  Q 1023.13 446.82 1023.30 433.00
  A 0.99 0.99 0.0 0 1 1024.29 432.02
  Z
  M 724.05 447.25
  L 748.22 447.25
  A 1.00 1.00 0.0 0 0 749.22 446.27
  Q 749.35 440.24 749.17 434.18
  C 748.71 418.21 735.95 420.74 722.87 421.04
  C 713.77 421.25 710.14 424.95 709.83 434.31
  Q 709.48 444.89 709.86 452.32
  C 710.20 459.01 714.59 463.06 721.18 462.99
  Q 734.04 462.85 746.86 461.21
  A 1.01 1.00 -4.0 0 0 747.73 460.22
  L 747.79 453.11
  A 1.00 0.99 87.2 0 0 746.69 452.11
  Q 735.71 453.26 724.66 452.96
  A 1.00 0.97 72.8 0 1 723.87 452.53
  Q 722.48 450.54 723.08 448.02
  A 1.00 1.00 0.0 0 1 724.05 447.25
  Z
  M 768.44 424.79
  L 768.18 422.87
  A 1.01 1.00 86.0 0 0 767.19 422.00
  L 757.26 422.00
  A 1.00 1.00 0.0 0 0 756.26 423.00
  L 756.23 461.00
  A 1.00 1.00 0.0 0 0 757.23 462.00
  L 768.25 462.00
  A 1.00 1.00 0.0 0 0 769.25 461.00
  L 769.31 435.81
  A 1.01 1.00 80.1 0 1 769.97 434.86
  Q 777.19 432.31 784.91 433.14
  A 1.00 0.99 -87.2 0 0 786.01 432.14
  L 785.97 421.99
  A 1.00 1.00 0.0 0 0 784.99 420.99
  Q 776.68 420.84 770.01 425.48
  A 1.00 1.00 0.0 0 1 768.44 424.79
  Z
  M 1168.16 424.93
  Q 1168.12 422.67 1166.30 422.18
  Q 1165.97 422.09 1162.76 421.99
  Q 1159.77 421.89 1156.71 422.12
  A 1.00 1.00 0.0 0 0 1155.79 423.12
  L 1155.61 461.00
  A 1.00 1.00 0.0 0 0 1156.61 462.00
  L 1168.00 462.00
  A 1.00 1.00 0.0 0 0 1169.00 461.00
  L 1169.00 435.89
  A 1.00 0.99 77.3 0 1 1169.56 434.99
  C 1173.80 432.91 1179.24 432.94 1184.26 432.90
  A 1.00 1.00 0.0 0 0 1185.25 431.90
  L 1185.25 422.01
  A 1.01 1.00 0.9 0 0 1184.27 421.01
  Q 1175.96 420.81 1169.43 425.57
  Q 1168.18 426.47 1168.16 424.93
  Z
  M 868.12 445.48
  L 859.78 422.66
  A 1.00 1.00 0.0 0 0 858.84 422.00
  L 846.92 422.00
  A 1.00 1.00 0.0 0 0 846.00 423.39
  Q 853.76 441.64 861.33 459.97
  Q 862.69 463.27 859.29 464.80
  Q 858.09 465.34 851.72 465.51
  A 1.00 0.99 89.4 0 0 850.75 466.51
  L 850.75 473.95
  A 1.00 0.99 2.9 0 0 851.65 474.94
  Q 855.05 475.30 858.47 475.66
  C 867.77 476.66 872.60 472.77 875.73 464.23
  Q 883.18 443.85 890.57 423.34
  A 1.00 1.00 0.0 0 0 889.63 422.00
  L 877.72 422.00
  A 1.01 1.00 8.6 0 0 876.76 422.70
  L 869.64 445.44
  Q 868.93 447.69 868.12 445.48
  Z
  M 945.77 438.81
  A 0.33 0.33 0.0 0 1 946.40 438.81
  L 953.49 461.77
  A 0.33 0.33 0.0 0 0 953.80 462.00
  L 967.53 462.00
  A 0.33 0.33 0.0 0 0 967.84 461.77
  L 980.06 422.43
  A 0.33 0.33 0.0 0 0 979.74 422.00
  L 966.01 422.00
  A 0.33 0.33 0.0 0 0 965.69 422.24
  L 959.26 445.23
  A 0.33 0.33 0.0 0 1 958.62 445.23
  L 952.23 422.24
  A 0.33 0.33 0.0 0 0 951.91 422.00
  L 940.09 422.00
  A 0.33 0.33 0.0 0 0 939.77 422.24
  L 933.31 445.25
  A 0.33 0.33 0.0 0 1 932.67 445.25
  L 926.31 422.24
  A 0.33 0.33 0.0 0 0 925.99 422.00
  L 912.20 422.00
  A 0.33 0.33 0.0 0 0 911.88 422.43
  L 924.19 461.77
  A 0.33 0.33 0.0 0 0 924.50 462.00
  L 938.11 462.00
  A 0.33 0.33 0.0 0 0 938.42 461.77
  L 945.77 438.81
  Z
  M 1219.94 459.74
  L 1220.00 461.05
  A 1.00 0.99 -1.2 0 0 1221.00 462.00
  L 1230.72 462.00
  A 1.00 1.00 0.0 0 0 1231.72 461.00
  L 1231.92 423.00
  A 1.00 1.00 0.0 0 0 1230.92 422.00
  L 1219.75 422.00
  A 1.00 1.00 0.0 0 0 1218.75 423.00
  L 1218.75 449.66
  A 1.00 1.00 0.0 0 1 1217.94 450.64
  C 1214.12 451.39 1203.97 454.66 1203.99 447.79
  Q 1204.03 435.40 1203.98 422.99
  A 1.00 1.00 0.0 0 0 1202.98 422.00
  L 1191.91 422.01
  A 1.00 0.99 0.9 0 0 1190.91 422.97
  Q 1190.41 437.48 1191.01 451.97
  C 1191.65 467.22 1210.03 464.23 1218.41 458.94
  A 1.00 1.00 0.0 0 1 1219.94 459.74
  Z
  M 1250.52 436.06
  Q 1250.32 433.37 1252.01 431.57
  A 1.02 0.99 -67.9 0 1 1252.74 431.25
  L 1273.75 431.25
  A 1.00 1.00 0.0 0 0 1274.75 430.25
  L 1274.75 423.03
  A 1.00 1.00 0.0 0 0 1273.76 422.03
  Q 1262.42 421.91 1251.11 422.06
  C 1241.16 422.18 1235.83 426.58 1237.29 437.12
  C 1239.16 450.55 1254.89 447.24 1264.18 447.26
  A 0.99 0.99 0.0 0 1 1265.17 448.21
  Q 1265.28 450.43 1264.20 452.24
  A 0.99 0.98 14.8 0 1 1263.37 452.72
  Q 1251.19 453.08 1239.15 451.30
  A 1.00 1.00 0.0 0 0 1238.00 452.29
  L 1238.00 460.25
  A 1.01 1.00 -86.8 0 0 1238.89 461.25
  C 1248.58 462.32 1258.07 462.43 1267.78 462.94
  C 1277.68 463.45 1280.16 451.10 1277.52 443.81
  C 1274.13 434.42 1259.14 437.03 1251.51 436.98
  A 1.01 1.00 87.8 0 1 1250.52 436.06
  Z
  M 794.27 433.25
  A 0.48 0.48 0.0 0 1 794.75 433.73
  L 794.75 461.51
  A 0.48 0.48 0.0 0 0 795.23 461.99
  L 807.52 462.00
  A 0.48 0.48 0.0 0 0 808.00 461.52
  L 808.00 423.68
  A 0.48 0.48 0.0 0 0 807.51 423.20
  L 789.47 423.45
  A 0.48 0.48 0.0 0 0 789.00 423.93
  L 789.00 432.77
  A 0.48 0.48 0.0 0 0 789.48 433.25
  L 794.27 433.25
  Z
  M 980.92 432.71
  A 0.48 0.48 0.0 0 0 981.39 433.21
  L 986.30 433.31
  A 0.48 0.48 0.0 0 1 986.77 433.79
  L 986.90 461.52
  A 0.48 0.48 0.0 0 0 987.38 462.00
  L 999.55 462.00
  A 0.48 0.48 0.0 0 0 1000.03 461.52
  L 999.99 423.80
  A 0.48 0.48 0.0 0 0 999.51 423.32
  L 981.72 423.24
  A 0.48 0.48 0.0 0 0 981.24 423.70
  L 980.92 432.71
  Z"
/>
<path fill="#1e4aca" d="
  M 558.17 198.34
  Q 561.87 205.90 561.89 214.44
  Q 562.17 329.74 561.83 445.05
  C 561.79 458.16 554.99 469.59 543.95 475.97
  Q 443.48 534.01 342.94 591.95
  Q 332.11 598.19 318.73 594.49
  C 314.24 593.25 305.88 587.84 301.58 585.36
  Q 206.16 530.34 110.79 475.23
  Q 100.76 469.43 96.25 457.81
  C 94.37 452.98 94.01 445.95 94.01 441.19
  Q 94.00 330.09 94.00 219.00
  C 94.00 202.04 99.18 191.11 114.05 182.54
  Q 260.42 98.24 308.29 70.53
  C 313.59 67.46 318.59 64.87 324.57 64.33
  Q 335.14 63.38 344.94 69.06
  Q 373.83 85.82 535.72 179.08
  C 541.44 182.38 548.15 185.70 554.29 189.16
  C 557.79 191.13 559.10 193.87 558.10 197.65
  A 1.03 1.01 -51.3 0 0 558.17 198.34
  Z
  M 238.06 278.15
  L 327.42 226.75
  A 1.00 1.00 0.0 0 1 328.42 226.75
  L 417.76 278.10
  A 1.01 1.00 -75.0 0 1 418.26 278.97
  L 418.26 380.90
  A 1.00 0.99 -15.3 0 1 417.76 381.76
  L 328.47 433.15
  A 1.00 1.00 0.0 0 1 327.47 433.15
  L 280.50 406.18
  A 1.01 1.00 -75.0 0 1 280.00 405.31
  L 280.00 303.49
  A 1.01 1.00 75.0 0 1 280.50 302.62
  L 327.40 275.78
  A 1.02 1.02 0.0 0 1 328.40 275.78
  L 375.50 302.72
  A 1.01 1.00 -75.0 0 1 376.00 303.59
  L 376.00 356.28
  A 1.01 1.00 -15.0 0 1 375.49 357.15
  L 328.62 383.96
  A 1.01 0.98 43.6 0 1 327.66 383.97
  L 323.03 381.50
  A 1.01 0.99 -76.3 0 1 322.50 380.61
  L 322.50 328.72
  A 0.99 0.99 0.0 0 1 322.98 327.87
  Q 334.32 320.97 345.96 314.52
  C 347.23 313.82 351.62 313.51 347.46 311.19
  Q 337.96 305.90 328.39 300.68
  A 1.02 1.01 44.2 0 0 327.42 300.69
  L 302.03 315.10
  A 0.99 0.98 75.6 0 0 301.53 315.96
  L 301.44 392.92
  A 1.00 0.99 15.3 0 0 301.94 393.78
  L 327.45 408.64
  A 1.00 1.00 0.0 0 0 328.45 408.64
  L 396.99 369.30
  A 1.01 1.00 -15.0 0 0 397.50 368.43
  L 397.51 291.48
  A 1.01 1.00 -75.0 0 0 397.01 290.61
  L 328.46 251.23
  A 1.01 1.00 44.5 0 0 327.47 251.23
  L 258.75 290.69
  A 1.01 1.00 75.0 0 0 258.25 291.56
  L 258.25 417.87
  A 1.01 1.00 15.0 0 0 258.76 418.74
  L 327.43 457.71
  A 1.01 1.00 -44.5 0 0 328.42 457.71
  L 439.50 394.22
  A 1.01 1.00 75.0 0 0 440.00 393.35
  L 440.00 266.49
  A 1.01 1.00 -75.0 0 0 439.50 265.62
  L 328.48 202.17
  A 1.01 1.00 44.5 0 0 327.49 202.17
  L 216.50 265.64
  A 1.01 1.00 75.0 0 0 216.00 266.51
  L 216.00 393.50
  A 1.00 0.98 -75.8 0 0 216.51 394.37
  L 235.99 405.23
  A 1.01 1.00 -75.5 0 0 237.48 404.35
  Q 237.49 373.74 237.42 343.32
  Q 237.34 311.15 237.56 279.01
  A 1.00 0.99 -15.3 0 1 238.06 278.15
  Z"
/>
<path fill="#1e4aca" d="
  M 703.25 221.00
  L 703.25 346.47
  A 1.00 1.00 0.0 0 1 702.25 347.47
  L 663.25 347.51
  A 1.00 1.00 0.0 0 1 662.25 346.51
  L 662.25 221.00
  A 1.00 1.00 0.0 0 0 661.25 220.00
  L 615.05 220.00
  A 1.01 1.00 -89.7 0 1 614.05 218.98
  Q 614.33 203.74 614.29 188.58
  C 614.28 185.30 616.33 185.22 618.94 185.80
  Q 628.88 188.01 634.50 188.00
  Q 692.38 187.98 750.27 188.02
  A 1.00 1.00 0.0 0 1 751.27 189.02
  L 751.24 219.00
  A 1.00 1.00 0.0 0 1 750.24 220.00
  L 704.25 220.00
  A 1.00 1.00 0.0 0 0 703.25 221.00
  Z"
/>
<path fill="#1e4aca" d="
  M 1254.93 220.00
  L 1235.33 220.00
  A 0.57 0.57 0.0 0 1 1234.76 219.43
  L 1234.74 188.57
  A 0.57 0.57 0.0 0 1 1235.31 188.00
  L 1316.68 188.00
  A 0.57 0.57 0.0 0 1 1317.25 188.57
  L 1317.25 219.43
  A 0.57 0.57 0.0 0 1 1316.68 220.00
  L 1297.32 220.00
  A 0.57 0.57 0.0 0 0 1296.75 220.57
  L 1296.74 315.43
  A 0.57 0.57 0.0 0 0 1297.31 316.00
  L 1316.70 316.00
  A 0.57 0.57 0.0 0 1 1317.27 316.57
  L 1317.20 346.93
  A 0.57 0.57 0.0 0 1 1316.63 347.50
  L 1235.34 347.50
  A 0.57 0.57 0.0 0 1 1234.77 346.93
  L 1234.74 316.58
  A 0.57 0.57 0.0 0 1 1235.31 316.01
  L 1254.93 316.00
  A 0.57 0.57 0.0 0 0 1255.50 315.43
  L 1255.50 220.57
  A 0.57 0.57 0.0 0 0 1254.93 220.00
  Z"
/>
<path fill="#1e4aca" d="
  M 1338.99 347.31
  A 1.00 1.00 0.0 0 1 1338.00 346.31
  L 1338.00 189.00
  A 1.00 1.00 0.0 0 1 1339.00 188.00
  Q 1384.29 188.00 1429.75 187.99
  Q 1437.99 187.99 1449.39 191.49
  C 1470.92 198.09 1479.56 217.57 1479.69 238.69
  Q 1479.85 264.59 1479.71 290.50
  C 1479.66 298.25 1479.41 306.55 1477.42 313.74
  Q 1469.69 341.61 1441.95 346.48
  Q 1436.34 347.46 1422.00 347.49
  Q 1380.94 347.57 1338.99 347.31
  Z
  M 1438.72 243.24
  C 1438.68 226.22 1431.82 219.94 1415.00 219.96
  Q 1397.42 219.99 1380.00 220.01
  A 1.00 1.00 0.0 0 0 1379.00 221.01
  L 1379.00 314.99
  A 1.01 1.00 0.3 0 0 1380.00 315.99
  Q 1395.99 316.04 1411.96 315.97
  C 1430.29 315.88 1438.58 311.38 1438.67 291.75
  Q 1438.78 267.49 1438.72 243.24
  Z"
/>
<path fill="#1e4aca" d="
  M 1144.44 257.50
  L 1132.75 257.50
  A 1.00 1.00 0.0 0 1 1131.75 256.50
  L 1131.75 228.00
  A 1.00 1.00 0.0 0 1 1132.75 227.00
  L 1144.64 227.00
  A 1.01 1.00 -85.3 0 0 1145.63 226.16
  L 1149.91 200.14
  A 0.99 0.99 0.0 0 1 1150.90 199.31
  L 1184.45 199.54
  A 1.00 1.00 0.0 0 1 1185.44 200.54
  L 1185.44 226.00
  A 1.00 1.00 0.0 0 0 1186.44 227.00
  L 1213.28 227.00
  A 1.00 1.00 0.0 0 1 1214.28 228.00
  L 1214.19 256.55
  A 1.01 1.00 -0.0 0 1 1213.18 257.55
  L 1186.39 257.39
  A 1.01 1.01 0.0 0 0 1185.38 258.38
  Q 1185.00 282.68 1185.44 306.99
  C 1185.58 314.39 1187.31 317.97 1195.03 317.99
  Q 1208.66 318.02 1222.25 317.99
  A 1.00 1.00 0.0 0 1 1223.25 318.99
  L 1223.25 346.35
  A 1.00 0.99 -2.5 0 1 1222.34 347.34
  Q 1193.40 349.94 1179.51 349.90
  C 1159.23 349.85 1145.83 336.26 1145.71 315.94
  Q 1145.54 287.22 1145.44 258.50
  A 1.00 1.00 0.0 0 0 1144.44 257.50
  Z"
/>
<path fill="#ffffff" d="
  M 237.56 279.01
  Q 237.34 311.15 237.42 343.32
  Q 237.49 373.74 237.48 404.35
  A 1.01 1.00 -75.5 0 1 235.99 405.23
  L 216.51 394.37
  A 1.00 0.98 -75.8 0 1 216.00 393.50
  L 216.00 266.51
  A 1.01 1.00 75.0 0 1 216.50 265.64
  L 327.49 202.17
  A 1.01 1.00 44.5 0 1 328.48 202.17
  L 439.50 265.62
  A 1.01 1.00 -75.0 0 1 440.00 266.49
  L 440.00 393.35
  A 1.01 1.00 75.0 0 1 439.50 394.22
  L 328.42 457.71
  A 1.01 1.00 -44.5 0 1 327.43 457.71
  L 258.76 418.74
  A 1.01 1.00 15.0 0 1 258.25 417.87
  L 258.25 291.56
  A 1.01 1.00 75.0 0 1 258.75 290.69
  L 327.47 251.23
  A 1.01 1.00 44.5 0 1 328.46 251.23
  L 397.01 290.61
  A 1.01 1.00 -75.0 0 1 397.51 291.48
  L 397.50 368.43
  A 1.01 1.00 -15.0 0 1 396.99 369.30
  L 328.45 408.64
  A 1.00 1.00 0.0 0 1 327.45 408.64
  L 301.94 393.78
  A 1.00 0.99 15.3 0 1 301.44 392.92
  L 301.53 315.96
  A 0.99 0.98 75.6 0 1 302.03 315.10
  L 327.42 300.69
  A 1.02 1.01 44.2 0 1 328.39 300.68
  Q 337.96 305.90 347.46 311.19
  C 351.62 313.51 347.23 313.82 345.96 314.52
  Q 334.32 320.97 322.98 327.87
  A 0.99 0.99 0.0 0 0 322.50 328.72
  L 322.50 380.61
  A 1.01 0.99 -76.3 0 0 323.03 381.50
  L 327.66 383.97
  A 1.01 0.98 43.6 0 0 328.62 383.96
  L 375.49 357.15
  A 1.01 1.00 -15.0 0 0 376.00 356.28
  L 376.00 303.59
  A 1.01 1.00 -75.0 0 0 375.50 302.72
  L 328.40 275.78
  A 1.02 1.02 0.0 0 0 327.40 275.78
  L 280.50 302.62
  A 1.01 1.00 75.0 0 0 280.00 303.49
  L 280.00 405.31
  A 1.01 1.00 -75.0 0 0 280.50 406.18
  L 327.47 433.15
  A 1.00 1.00 0.0 0 0 328.47 433.15
  L 417.76 381.76
  A 1.00 0.99 -15.3 0 0 418.26 380.90
  L 418.26 278.97
  A 1.01 1.00 -75.0 0 0 417.76 278.10
  L 328.42 226.75
  A 1.00 1.00 0.0 0 0 327.42 226.75
  L 238.06 278.15
  A 1.00 0.99 -15.3 0 0 237.56 279.01
  Z"
/>
<path fill="#ffffff" d="
  M 1415.00 219.96
  C 1431.82 219.94 1438.68 226.22 1438.72 243.24
  Q 1438.78 267.49 1438.67 291.75
  C 1438.58 311.38 1430.29 315.88 1411.96 315.97
  Q 1395.99 316.04 1380.00 315.99
  A 1.01 1.00 0.3 0 1 1379.00 314.99
  L 1379.00 221.01
  A 1.00 1.00 0.0 0 1 1380.00 220.01
  Q 1397.42 219.99 1415.00 219.96
  Z"
/>
<path fill="#1e4aca" d="
  M 792.91 240.39
  Q 813.98 222.41 842.14 224.67
  A 1.00 1.00 0.0 0 1 843.06 225.67
  L 843.00 258.91
  A 1.01 1.01 0.0 0 1 842.00 259.91
  Q 834.12 259.94 826.24 260.07
  C 814.32 260.26 804.70 262.10 794.37 266.34
  A 0.99 0.99 0.0 0 0 793.75 267.26
  L 793.76 346.50
  A 1.00 1.00 0.0 0 1 792.76 347.50
  L 755.00 347.50
  A 1.00 1.00 0.0 0 1 754.00 346.50
  Q 753.99 294.39 754.01 242.11
  Q 754.01 242.03 753.79 234.91
  Q 753.68 231.41 753.99 227.91
  A 1.00 0.99 -87.5 0 1 754.98 227.00
  L 788.40 227.00
  A 1.00 0.99 -4.3 0 1 789.39 227.84
  L 791.28 239.79
  Q 791.55 241.55 792.91 240.39
  Z"
/>
<path fill="#1e4aca" d="
  M 943.80 337.26
  Q 918.87 352.36 888.98 349.52
  C 876.12 348.30 864.66 340.10 860.84 327.83
  Q 859.33 322.97 859.29 308.39
  C 859.23 286.03 859.41 263.66 859.07 241.30
  Q 858.97 234.62 859.38 227.94
  A 1.00 0.99 1.5 0 1 860.38 227.00
  L 898.18 227.00
  A 1.00 1.00 0.0 0 1 899.18 228.00
  Q 899.39 291.07 899.23 306.74
  C 899.14 315.29 903.97 316.94 911.65 317.06
  Q 927.15 317.30 942.05 312.64
  A 1.00 0.99 -8.8 0 0 942.75 311.69
  L 942.75 228.00
  A 1.00 1.00 0.0 0 1 943.75 227.00
  L 981.75 227.00
  A 1.00 1.00 0.0 0 1 982.75 228.00
  L 982.76 346.50
  A 1.00 1.00 0.0 0 1 981.76 347.50
  L 948.18 347.50
  A 1.00 1.00 0.0 0 1 947.20 346.71
  L 945.29 337.91
  A 1.00 1.00 0.0 0 0 943.80 337.26
  Z"
/>
<path fill="#1e4aca" d="
  M 1081.50 303.06
  Q 1058.95 302.96 1036.39 303.00
  Q 1025.93 303.03 1021.25 301.59
  C 1011.04 298.46 1002.66 289.82 1000.18 279.35
  C 998.12 270.68 998.16 257.87 1000.73 248.74
  C 1004.77 234.44 1019.62 226.97 1033.75 226.97
  Q 1071.87 226.97 1109.99 227.02
  A 1.00 1.00 0.0 0 1 1110.99 228.02
  L 1111.02 255.49
  A 1.00 1.00 0.0 0 1 1110.02 256.49
  Q 1078.95 256.44 1047.95 256.58
  C 1044.02 256.60 1040.03 258.05 1039.24 262.01
  C 1037.59 270.33 1043.95 272.40 1050.95 272.44
  Q 1069.59 272.56 1088.25 272.60
  Q 1101.71 272.63 1111.48 280.75
  C 1120.95 288.62 1122.48 299.62 1122.61 311.62
  C 1122.72 321.73 1121.34 331.96 1113.92 339.49
  Q 1103.87 349.67 1088.32 349.87
  C 1059.54 350.22 1031.13 348.24 1002.17 345.42
  A 1.00 0.99 2.9 0 1 1001.27 344.43
  L 1001.22 317.21
  A 1.00 0.99 1.9 0 1 1002.29 316.21
  Q 1038.06 319.00 1073.93 318.98
  Q 1080.78 318.98 1082.18 312.48
  Q 1082.79 309.68 1082.49 304.00
  A 0.99 0.99 0.0 0 0 1081.50 303.06
  Z"
/>
<rect fill="#383838" x="-6.62" y="-5.38" transform="translate(801.38,413.37) rotate(0.1)" width="13.24" height="10.76" rx="0.63"/>
<path fill="#383838" d="
  M 817.75 435.00
  L 814.25 435.00
  A 1.00 1.00 0.0 0 1 813.25 434.00
  L 813.25 426.00
  A 1.00 1.00 0.0 0 1 814.25 425.00
  L 817.64 425.00
  A 1.00 1.00 0.0 0 0 818.64 424.05
  L 819.18 413.84
  A 1.05 1.01 -22.2 0 1 819.47 413.18
  C 827.30 405.27 836.47 408.57 847.55 409.09
  A 1.00 0.99 -88.8 0 1 848.50 410.09
  L 848.50 417.89
  A 1.00 0.99 -89.4 0 1 847.49 418.89
  L 833.55 418.69
  A 1.00 0.98 11.0 0 0 832.61 419.31
  Q 831.68 421.61 832.01 424.13
  A 1.01 1.01 0.0 0 0 833.01 425.00
  L 843.72 425.00
  A 1.00 1.00 0.0 0 1 844.72 425.99
  L 844.76 434.03
  A 1.00 0.99 0.0 0 1 843.75 435.03
  L 833.01 434.92
  A 1.00 1.00 0.0 0 0 832.00 435.92
  L 832.00 461.00
  A 1.00 1.00 0.0 0 1 831.00 462.00
  L 819.75 461.99
  A 1.00 1.00 0.0 0 1 818.75 460.99
  L 818.75 436.00
  A 1.00 1.00 0.0 0 0 817.75 435.00
  Z"
/>
<rect fill="#383838" x="-6.57" y="-5.33" transform="translate(993.47,413.33) rotate(-0.5)" width="13.14" height="10.66" rx="0.47"/>
<path fill="#383838" d="
  M 682.08 445.18
  L 694.76 409.21
  A 0.32 0.32 0.0 0 1 695.07 409.00
  L 709.19 409.00
  A 0.32 0.32 0.0 0 1 709.48 409.43
  L 689.54 461.79
  A 0.32 0.32 0.0 0 1 689.24 462.00
  L 674.42 462.00
  A 0.32 0.32 0.0 0 1 674.12 461.79
  L 654.24 409.41
  A 0.32 0.32 0.0 0 1 654.54 408.98
  L 668.71 409.01
  A 0.32 0.32 0.0 0 1 669.01 409.22
  L 681.48 445.18
  A 0.32 0.32 0.0 0 0 682.08 445.18
  Z"
/>
<path fill="#383838" d="
  M 1055.96 422.43
  Q 1065.74 420.33 1072.47 421.05
  Q 1078.99 421.74 1081.32 427.01
  Q 1082.48 429.65 1082.49 436.61
  Q 1082.51 449.72 1082.49 464.55
  A 1.01 1.00 -89.2 0 1 1081.47 465.55
  L 1069.83 465.39
  A 1.01 1.00 1.9 0 1 1068.84 464.34
  Q 1069.63 449.16 1069.08 434.00
  Q 1068.97 430.92 1066.50 431.08
  L 1055.68 431.80
  A 1.00 0.99 88.2 0 0 1054.75 432.80
  L 1054.75 463.31
  A 1.05 1.01 -24.3 0 1 1054.47 464.01
  C 1052.12 466.45 1046.96 465.41 1044.30 464.90
  Q 1041.27 464.32 1041.27 461.24
  L 1041.24 410.00
  A 1.00 1.00 0.0 0 1 1042.24 409.00
  L 1053.75 409.00
  A 1.00 1.00 0.0 0 1 1054.75 410.00
  L 1054.75 421.46
  A 1.00 0.99 -6.1 0 0 1055.96 422.43
  Z"
/>
<path fill="#383838" d="
  M 1109.17 418.74
  L 1109.28 409.49
  A 0.50 0.50 0.0 0 1 1109.78 409.00
  L 1154.50 409.00
  A 0.50 0.50 0.0 0 1 1155.00 409.50
  L 1155.00 418.75
  A 0.50 0.50 0.0 0 1 1154.50 419.25
  L 1139.30 419.25
  A 0.50 0.50 0.0 0 0 1138.80 419.75
  L 1139.02 461.50
  A 0.50 0.50 0.0 0 1 1138.52 462.00
  L 1125.69 462.00
  A 0.50 0.50 0.0 0 1 1125.19 461.50
  L 1125.28 419.75
  A 0.50 0.50 0.0 0 0 1124.78 419.25
  L 1109.67 419.25
  A 0.50 0.50 0.0 0 1 1109.17 418.74
  Z"
/>
<path fill="#383838" d="
  M 1284.95 432.00
  L 1282.25 432.00
  A 1.00 1.00 0.0 0 1 1281.25 431.00
  L 1281.25 423.00
  A 1.00 1.00 0.0 0 1 1282.25 422.00
  L 1285.26 422.00
  A 1.01 1.00 3.9 0 0 1286.26 421.14
  L 1287.33 413.36
  A 1.01 1.01 0.0 0 1 1288.36 412.50
  L 1298.28 412.81
  A 1.00 1.00 0.0 0 1 1299.25 413.81
  L 1299.25 421.00
  A 1.00 1.00 0.0 0 0 1300.25 422.00
  L 1307.88 422.00
  A 1.00 0.99 89.7 0 1 1308.87 422.99
  L 1308.97 430.93
  A 1.00 1.00 0.0 0 1 1307.98 431.94
  L 1300.27 432.02
  A 1.00 1.00 0.0 0 0 1299.28 433.02
  Q 1299.21 441.30 1299.27 449.49
  Q 1299.29 452.33 1302.83 452.53
  Q 1306.90 452.76 1311.00 452.77
  A 1.01 1.00 0.3 0 1 1312.00 453.77
  L 1312.00 460.94
  A 0.99 0.99 0.0 0 1 1311.10 461.93
  Q 1302.73 462.74 1296.93 462.91
  C 1288.93 463.16 1285.96 456.54 1286.00 449.50
  Q 1286.04 441.25 1285.95 432.99
  A 1.00 1.00 0.0 0 0 1284.95 432.00
  Z"
/>
<path fill="#383838" d="
  M 1023.30 433.00
  Q 1023.13 446.82 1023.26 449.51
  Q 1023.40 452.31 1026.77 452.49
  Q 1030.88 452.71 1035.01 452.77
  A 1.01 1.00 0.6 0 1 1036.00 453.77
  L 1036.00 462.29
  A 1.00 1.00 0.0 0 1 1034.82 463.27
  Q 1029.51 462.27 1024.17 462.76
  C 1016.30 463.47 1010.69 461.02 1010.32 451.97
  Q 1010.16 448.25 1009.93 432.99
  A 1.00 1.00 0.0 0 0 1008.93 432.00
  L 1006.25 432.00
  A 1.00 1.00 0.0 0 1 1005.25 431.00
  L 1005.25 423.00
  A 1.00 1.00 0.0 0 1 1006.25 422.00
  L 1009.30 422.00
  A 1.01 1.00 3.9 0 0 1010.30 421.14
  L 1011.32 413.61
  A 1.00 1.00 0.0 0 1 1012.31 412.75
  L 1022.25 412.75
  A 1.00 1.00 0.0 0 1 1023.25 413.75
  L 1023.25 421.00
  A 1.00 1.00 0.0 0 0 1024.25 422.00
  L 1032.00 422.00
  A 1.00 1.00 0.0 0 1 1033.00 423.00
  L 1033.00 430.96
  A 1.00 1.00 0.0 0 1 1032.01 431.96
  L 1024.29 432.02
  A 0.99 0.99 0.0 0 0 1023.30 433.00
  Z"
/>
<path fill="#383838" d="
  M 723.08 448.02
  Q 722.48 450.54 723.87 452.53
  A 1.00 0.97 72.8 0 0 724.66 452.96
  Q 735.71 453.26 746.69 452.11
  A 1.00 0.99 87.2 0 1 747.79 453.11
  L 747.73 460.22
  A 1.01 1.00 -4.0 0 1 746.86 461.21
  Q 734.04 462.85 721.18 462.99
  C 714.59 463.06 710.20 459.01 709.86 452.32
  Q 709.48 444.89 709.83 434.31
  C 710.14 424.95 713.77 421.25 722.87 421.04
  C 735.95 420.74 748.71 418.21 749.17 434.18
  Q 749.35 440.24 749.22 446.27
  A 1.00 1.00 0.0 0 1 748.22 447.25
  L 724.05 447.25
  A 1.00 1.00 0.0 0 0 723.08 448.02
  Z
  M 723.36 431.67
  L 722.94 436.92
  A 1.01 1.00 -87.9 0 0 723.94 438.00
  L 734.97 438.00
  A 1.00 1.00 0.0 0 0 735.95 437.18
  Q 736.53 433.99 735.02 431.26
  A 1.00 0.98 -14.2 0 0 734.15 430.75
  L 724.35 430.75
  A 1.00 0.99 -87.8 0 0 723.36 431.67
  Z"
/>
<path fill="#383838" d="
  M 770.01 425.48
  Q 776.68 420.84 784.99 420.99
  A 1.00 1.00 0.0 0 1 785.97 421.99
  L 786.01 432.14
  A 1.00 0.99 -87.2 0 1 784.91 433.14
  Q 777.19 432.31 769.97 434.86
  A 1.01 1.00 80.1 0 0 769.31 435.81
  L 769.25 461.00
  A 1.00 1.00 0.0 0 1 768.25 462.00
  L 757.23 462.00
  A 1.00 1.00 0.0 0 1 756.23 461.00
  L 756.26 423.00
  A 1.00 1.00 0.0 0 1 757.26 422.00
  L 767.19 422.00
  A 1.01 1.00 86.0 0 1 768.18 422.87
  L 768.44 424.79
  A 1.00 1.00 0.0 0 0 770.01 425.48
  Z"
/>
<path fill="#383838" d="
  M 1168.16 424.93
  Q 1168.18 426.47 1169.43 425.57
  Q 1175.96 420.81 1184.27 421.01
  A 1.01 1.00 0.9 0 1 1185.25 422.01
  L 1185.25 431.90
  A 1.00 1.00 0.0 0 1 1184.26 432.90
  C 1179.24 432.94 1173.80 432.91 1169.56 434.99
  A 1.00 0.99 77.3 0 0 1169.00 435.89
  L 1169.00 461.00
  A 1.00 1.00 0.0 0 1 1168.00 462.00
  L 1156.61 462.00
  A 1.00 1.00 0.0 0 1 1155.61 461.00
  L 1155.79 423.12
  A 1.00 1.00 0.0 0 1 1156.71 422.12
  Q 1159.77 421.89 1162.76 421.99
  Q 1165.97 422.09 1166.30 422.18
  Q 1168.12 422.67 1168.16 424.93
  Z"
/>
<path fill="#383838" d="
  M 868.12 445.48
  Q 868.93 447.69 869.64 445.44
  L 876.76 422.70
  A 1.01 1.00 8.6 0 1 877.72 422.00
  L 889.63 422.00
  A 1.00 1.00 0.0 0 1 890.57 423.34
  Q 883.18 443.85 875.73 464.23
  C 872.60 472.77 867.77 476.66 858.47 475.66
  Q 855.05 475.30 851.65 474.94
  A 1.00 0.99 2.9 0 1 850.75 473.95
  L 850.75 466.51
  A 1.00 0.99 89.4 0 1 851.72 465.51
  Q 858.09 465.34 859.29 464.80
  Q 862.69 463.27 861.33 459.97
  Q 853.76 441.64 846.00 423.39
  A 1.00 1.00 0.0 0 1 846.92 422.00
  L 858.84 422.00
  A 1.00 1.00 0.0 0 1 859.78 422.66
  L 868.12 445.48
  Z"
/>
<path fill="#383838" d="
  M 945.77 438.81
  L 938.42 461.77
  A 0.33 0.33 0.0 0 1 938.11 462.00
  L 924.50 462.00
  A 0.33 0.33 0.0 0 1 924.19 461.77
  L 911.88 422.43
  A 0.33 0.33 0.0 0 1 912.20 422.00
  L 925.99 422.00
  A 0.33 0.33 0.0 0 1 926.31 422.24
  L 932.67 445.25
  A 0.33 0.33 0.0 0 0 933.31 445.25
  L 939.77 422.24
  A 0.33 0.33 0.0 0 1 940.09 422.00
  L 951.91 422.00
  A 0.33 0.33 0.0 0 1 952.23 422.24
  L 958.62 445.23
  A 0.33 0.33 0.0 0 0 959.26 445.23
  L 965.69 422.24
  A 0.33 0.33 0.0 0 1 966.01 422.00
  L 979.74 422.00
  A 0.33 0.33 0.0 0 1 980.06 422.43
  L 967.84 461.77
  A 0.33 0.33 0.0 0 1 967.53 462.00
  L 953.80 462.00
  A 0.33 0.33 0.0 0 1 953.49 461.77
  L 946.40 438.81
  A 0.33 0.33 0.0 0 0 945.77 438.81
  Z"
/>
<path fill="#383838" d="
  M 1219.94 459.74
  A 1.00 1.00 0.0 0 0 1218.41 458.94
  C 1210.03 464.23 1191.65 467.22 1191.01 451.97
  Q 1190.41 437.48 1190.91 422.97
  A 1.00 0.99 0.9 0 1 1191.91 422.01
  L 1202.98 422.00
  A 1.00 1.00 0.0 0 1 1203.98 422.99
  Q 1204.03 435.40 1203.99 447.79
  C 1203.97 454.66 1214.12 451.39 1217.94 450.64
  A 1.00 1.00 0.0 0 0 1218.75 449.66
  L 1218.75 423.00
  A 1.00 1.00 0.0 0 1 1219.75 422.00
  L 1230.92 422.00
  A 1.00 1.00 0.0 0 1 1231.92 423.00
  L 1231.72 461.00
  A 1.00 1.00 0.0 0 1 1230.72 462.00
  L 1221.00 462.00
  A 1.00 0.99 -1.2 0 1 1220.00 461.05
  L 1219.94 459.74
  Z"
/>
<path fill="#383838" d="
  M 1250.52 436.06
  A 1.01 1.00 87.8 0 0 1251.51 436.98
  C 1259.14 437.03 1274.13 434.42 1277.52 443.81
  C 1280.16 451.10 1277.68 463.45 1267.78 462.94
  C 1258.07 462.43 1248.58 462.32 1238.89 461.25
  A 1.01 1.00 -86.8 0 1 1238.00 460.25
  L 1238.00 452.29
  A 1.00 1.00 0.0 0 1 1239.15 451.30
  Q 1251.19 453.08 1263.37 452.72
  A 0.99 0.98 14.8 0 0 1264.20 452.24
  Q 1265.28 450.43 1265.17 448.21
  A 0.99 0.99 0.0 0 0 1264.18 447.26
  C 1254.89 447.24 1239.16 450.55 1237.29 437.12
  C 1235.83 426.58 1241.16 422.18 1251.11 422.06
  Q 1262.42 421.91 1273.76 422.03
  A 1.00 1.00 0.0 0 1 1274.75 423.03
  L 1274.75 430.25
  A 1.00 1.00 0.0 0 1 1273.75 431.25
  L 1252.74 431.25
  A 1.02 0.99 -67.9 0 0 1252.01 431.57
  Q 1250.32 433.37 1250.52 436.06
  Z"
/>
<path fill="#383838" d="
  M 794.27 433.25
  L 789.48 433.25
  A 0.48 0.48 0.0 0 1 789.00 432.77
  L 789.00 423.93
  A 0.48 0.48 0.0 0 1 789.47 423.45
  L 807.51 423.20
  A 0.48 0.48 0.0 0 1 808.00 423.68
  L 808.00 461.52
  A 0.48 0.48 0.0 0 1 807.52 462.00
  L 795.23 461.99
  A 0.48 0.48 0.0 0 1 794.75 461.51
  L 794.75 433.73
  A 0.48 0.48 0.0 0 0 794.27 433.25
  Z"
/>
<path fill="#383838" d="
  M 980.92 432.71
  L 981.24 423.70
  A 0.48 0.48 0.0 0 1 981.72 423.24
  L 999.51 423.32
  A 0.48 0.48 0.0 0 1 999.99 423.80
  L 1000.03 461.52
  A 0.48 0.48 0.0 0 1 999.55 462.00
  L 987.38 462.00
  A 0.48 0.48 0.0 0 1 986.90 461.52
  L 986.77 433.79
  A 0.48 0.48 0.0 0 0 986.30 433.31
  L 981.39 433.21
  A 0.48 0.48 0.0 0 1 980.92 432.71
  Z"
/>
<path fill="#ffffff" d="
  M 723.36 431.67
  A 1.00 0.99 -87.8 0 1 724.35 430.75
  L 734.15 430.75
  A 1.00 0.98 -14.2 0 1 735.02 431.26
  Q 736.53 433.99 735.95 437.18
  A 1.00 1.00 0.0 0 1 734.97 438.00
  L 723.94 438.00
  A 1.01 1.00 -87.9 0 1 722.94 436.92
  L 723.36 431.67
  Z"
/>
</svg>
